<svg width="22" height="21" viewBox="0 0 22 21" fill="none" xmlns="http://www.w3.org/2000/svg">
<path d="M1.97961 3.04205L18.5819 19.6443C19.1229 20.1854 20.0001 20.1854 20.5412 19.6443L20.6443 19.5412C21.1853 19.0002 21.1853 18.123 20.6443 17.5819L4.042 0.979653C3.50096 0.438613 2.62377 0.438613 2.08273 0.979652L1.97961 1.08277C1.43857 1.62381 1.43857 2.50101 1.97961 3.04205Z" fill="white"/>
<path d="M17.7699 0.875971L1.16763 17.4782C0.626587 18.0193 0.626587 18.8965 1.16763 19.4375L1.27075 19.5406C1.81178 20.0817 2.68898 20.0817 3.23002 19.5406L19.8323 2.93837C20.3733 2.39733 20.3733 1.52013 19.8323 0.979091L19.7292 0.87597C19.1881 0.334931 18.3109 0.334931 17.7699 0.875971Z" fill="white"/>
</svg>
